# xmcd
#
# Track frame offsets: 
#        150
#        12087
#        36147
#        55475
#        81427
#        109554
#        140757
#        157655
#        186280
#        208270
#        229882
#
# Disc length: 3537 seconds
#
# Revision: 0
# Processed by: cddbd v1.5.2PL0 Copyright (c) Steve Scherf et al.
# Submitted via: ExactAudioCopy v0.99pb3
#
DISCID=930dcf0b
DTITLE=Maxwell - Maxwell's Urban Hang Suite
DYEAR=1996
DGENRE=R&B
TTITLE0=The Urban Theme
TTITLE1=Welcome
TTITLE2=Sumthin' Sumthin'
TTITLE3=Ascension (Don't Ever Wonder)
TTITLE4=Dancewitme
TTITLE5=Til The Cops Come Knockin'
TTITLE6=Whenever, Wherever, Whatever
TTITLE7=Lonely's The Only Company (I&II)
TTITLE8=Reunion
TTITLE9=Suitelady (The Proposal Jam)
TTITLE10=The Suite Theme
EXTD=
EXTT0=
EXTT1=
EXTT2=
EXTT3=
EXTT4=
EXTT5=
EXTT6=
EXTT7=
EXTT8=
EXTT9=
EXTT10=
PLAYORDER=
